<svg xmlns="http://www.w3.org/2000/svg" viewBox="0 0 400 260" width="400" height="260"><path d="M 183.15 82.19 C 186.95 85.02 189.27 88.19 190.01 92.94 C 190.06 97.23 189.25 100.06 186.51 103.46 C 185.90 103.94 185.90 103.94 185.28 104.42 C 184.16 105.88 184.31 106.62 184.35 108.44 C 184.36 109.34 184.38 110.24 184.40 111.17 C 185.62 111.10 185.62 111.10 186.87 111.02 C 219.17 109.10 219.17 109.10 230.06 118.27 C 234.31 122.25 237.13 126.51 238.74 132.12 C 239.69 135.29 241.12 136.16 244.00 137.82 C 249.18 142.02 252.05 147.57 253.82 153.94 C 254.65 163.71 253.02 171.00 247.51 179.18 C 247.28 179.65 247.04 180.11 246.81 180.59 C 247.17 180.36 247.53 180.13 247.91 179.90 C 251.85 178.24 257.05 178.59 261.14 179.62 C 265.73 181.65 269.10 185.50 270.95 190.09 C 271.93 196.08 271.05 200.23 267.79 205.26 C 264.17 209.20 259.59 210.85 254.34 211.13 C 253.57 211.16 252.80 211.19 252.01 211.22 C 248.59 211.53 245.50 212.55 242.24 213.55 C 236.61 215.14 230.91 215.87 225.07 215.64 C 225.18 216.05 225.30 216.46 225.42 216.88 C 225.85 218.84 225.69 220.69 225.58 222.68 C 225.23 227.58 225.23 227.58 226.78 232.07 C 228.06 233.27 228.06 233.27 229.44 234.30 C 231.55 235.97 232.05 237.61 232.78 240.19 C 232.78 243.26 232.44 244.63 230.55 247.06 C 226.90 249.90 223.30 250.20 218.81 250.16 C 218.28 250.16 217.76 250.16 217.22 250.16 C 216.12 250.16 215.02 250.16 213.91 250.14 C 212.24 250.13 210.57 250.13 208.89 250.13 C 193.55 250.09 193.55 250.09 190.01 247.20 C 188.53 244.89 188.46 243.06 188.52 240.36 C 188.53 239.67 188.55 238.98 188.55 238.26 C 188.57 237.75 188.59 237.22 188.61 236.68 C 185.55 236.09 182.68 235.90 179.58 235.94 C 178.77 235.94 177.97 235.94 177.13 235.95 C 176.21 235.96 176.21 235.96 175.29 235.98 C 175.52 236.61 175.75 237.25 175.99 237.90 C 176.87 240.79 176.91 242.92 175.99 245.79 C 174.19 248.02 173.09 249.10 170.38 250.00 C 169.36 250.07 168.35 250.11 167.33 250.11 C 166.72 250.12 166.10 250.13 165.47 250.13 C 164.81 250.13 164.15 250.14 163.47 250.14 C 162.78 250.15 162.10 250.15 161.39 250.16 C 159.95 250.16 158.50 250.16 157.04 250.17 C 154.84 250.18 152.63 250.20 150.43 250.22 C 149.02 250.23 147.61 250.23 146.20 250.23 C 145.54 250.24 144.89 250.25 144.22 250.25 C 140.07 250.24 136.99 249.66 133.22 247.90 C 131.44 245.90 131.15 244.67 130.81 242.02 C 131.19 238.85 132.23 237.28 133.92 234.58 C 134.18 233.65 134.42 232.71 134.62 231.77 C 133.74 230.98 132.87 230.19 131.99 229.40 C 131.50 228.97 131.01 228.52 130.51 228.07 C 128.16 226.18 126.19 225.38 123.23 224.94 C 118.71 223.99 115.77 221.37 112.62 218.14 C 110.14 214.23 109.28 209.68 110.08 205.13 C 112.44 198.62 115.56 194.56 121.52 191.19 C 123.40 190.40 123.40 190.40 124.80 190.40 C 124.44 188.82 124.05 187.24 123.66 185.67 C 123.35 184.35 123.35 184.35 123.02 183.01 C 121.78 180.08 120.51 179.33 117.79 177.78 C 115.00 174.54 114.09 171.47 114.29 167.27 C 115.16 164.50 116.05 162.74 117.97 160.56 C 119.42 158.94 119.42 158.94 118.93 157.00 C 118.78 156.22 118.64 155.44 118.49 154.64 C 117.93 143.77 119.12 136.01 126.42 127.52 C 137.99 117.57 153.52 114.96 168.28 113.28 C 168.26 111.10 168.14 109.07 167.58 106.97 C 165.64 105.33 165.64 105.33 163.37 104.16 C 160.05 100.49 159.61 97.65 159.67 92.84 C 160.05 88.85 161.73 85.89 164.68 83.21 C 170.16 79.49 177.29 78.78 183.15 82.19 Z" fill="#081724"/><path d="M 227.10 122.98 C 229.87 125.83 232.09 128.93 232.78 132.91 C 231.48 134.21 229.27 133.98 227.52 134.18 C 220.34 135.17 213.97 137.72 209.18 143.40 C 206.26 147.52 204.43 152.05 202.63 156.75 C 201.39 156.67 201.39 156.67 199.83 156.05 C 198.52 154.13 198.52 154.13 197.20 151.71 C 193.15 144.76 187.85 141.56 180.19 139.22 C 170.76 137.34 162.20 139.58 154.25 144.83 C 150.40 147.48 148.50 149.91 146.54 154.16 C 144.98 157.04 144.30 157.96 141.15 159.00 C 138.27 159.46 135.43 159.53 132.52 159.55 C 131.83 159.60 131.14 159.64 130.43 159.69 C 128.74 159.77 128.74 159.77 126.21 159.55 C 122.92 154.62 123.48 147.26 124.40 141.56 C 126.21 135.28 130.71 130.49 136.09 126.99 C 148.74 120.18 164.77 119.04 178.79 117.48 C 179.45 117.41 180.11 117.33 180.79 117.26 C 216.13 113.42 216.13 113.42 227.10 122.98 Z" fill="#00D66B"/><path d="M 239.53 140.31 C 244.55 143.88 247.79 149.30 248.91 155.35 C 249.70 163.63 248.38 170.72 243.03 177.24 C 238.90 181.77 235.00 184.35 228.78 184.99 C 223.00 185.19 218.28 184.21 213.72 180.55 C 209.46 176.52 206.68 171.57 205.44 165.86 C 203.09 165.88 201.21 166.15 199.13 167.27 C 198.10 169.25 197.60 171.21 197.02 173.37 C 194.83 180.62 190.10 185.23 183.70 189.00 C 181.75 190.02 180.25 190.57 178.09 191.10 C 176.34 190.53 176.34 190.53 175.29 189.70 C 176.35 187.56 178.01 187.51 180.24 186.76 C 187.17 184.14 191.05 180.64 194.16 173.84 C 195.85 168.53 195.87 162.66 193.78 157.45 C 190.89 152.10 187.24 148.60 181.60 146.23 C 174.85 144.50 168.07 144.96 161.97 148.33 C 155.99 151.95 152.10 156.65 150.38 163.45 C 149.30 168.98 150.27 173.49 152.85 178.48 C 154.25 180.29 155.72 181.92 157.33 183.55 C 158.46 184.79 158.46 184.79 158.46 186.20 C 157.28 186.74 157.28 186.74 155.66 186.90 C 150.27 182.98 146.73 178.10 145.45 171.61 C 144.61 165.01 145.45 158.80 149.47 153.37 C 150.34 152.37 151.23 151.39 152.15 150.44 C 152.56 149.99 152.98 149.54 153.42 149.08 C 159.70 142.99 167.72 141.04 176.21 141.13 C 182.78 141.62 187.68 144.23 192.12 149.04 C 197.72 155.72 197.72 155.72 197.72 159.55 C 200.04 159.32 202.35 159.09 204.74 158.85 C 205.02 158.05 205.31 157.26 205.61 156.44 C 205.81 155.93 206.01 155.42 206.21 154.88 C 206.62 153.82 207.01 152.76 207.38 151.69 C 209.54 146.05 213.60 141.65 218.98 138.87 C 225.95 136.03 233.04 136.39 239.53 140.31 Z" fill="#075BD8"/><path d="M 186.50 151.84 C 190.57 155.78 192.48 160.65 193.08 166.21 C 192.34 173.06 189.53 177.37 184.40 181.99 C 179.00 185.54 173.88 185.91 167.57 185.49 C 165.51 185.07 163.81 184.39 161.96 183.39 C 161.32 183.05 161.32 183.05 160.66 182.69 C 156.72 180.26 154.45 176.55 153.12 172.16 C 151.95 166.18 153.39 161.23 156.48 156.06 C 159.68 151.75 164.94 149.21 170.06 147.86 C 176.03 147.06 181.59 148.37 186.50 151.84 Z" fill="#FFFEFA"/><path d="M 237.69 146.93 C 241.73 151.08 242.74 154.86 242.90 160.52 C 242.76 166.51 241.54 170.45 237.51 174.89 C 233.83 178.27 229.62 179.72 224.62 179.51 C 220.17 178.62 216.36 176.01 213.85 172.26 C 211.13 167.17 210.45 162.40 211.74 156.75 C 213.53 151.59 216.30 147.84 220.86 144.83 C 226.68 142.24 232.64 143.30 237.69 146.93 Z" fill="#FFFEFA"/><path d="M 239.79 191.80 C 239.73 192.47 239.67 193.14 239.62 193.82 C 239.61 198.51 241.82 202.94 244.70 206.53 C 242.55 208.68 239.99 208.83 237.07 209.42 C 236.46 209.54 235.84 209.67 235.20 209.80 C 228.54 211.04 222.00 210.99 215.25 210.74 C 214.79 209.35 214.32 207.96 213.85 206.53 C 213.15 206.53 212.46 206.53 211.74 206.53 C 211.56 207.14 211.38 207.75 211.19 208.38 C 210.33 210.76 209.29 212.65 207.93 214.77 C 207.52 215.43 207.10 216.09 206.66 216.77 C 205.43 218.45 205.43 218.45 203.33 219.85 C 203.33 220.31 203.33 220.78 203.33 221.25 C 204.94 221.60 204.94 221.60 206.84 221.25 C 209.14 218.89 210.83 216.43 212.45 213.54 C 214.52 213.64 216.10 213.74 217.69 215.17 C 220.88 219.01 220.88 219.01 220.82 221.42 C 220.76 222.03 220.71 222.64 220.64 223.27 C 220.59 223.88 220.53 224.48 220.47 225.10 C 220.14 226.94 219.78 228.11 218.76 229.67 C 217.41 230.08 217.41 230.08 215.78 230.17 C 215.17 230.22 214.58 230.26 213.95 230.31 C 213.33 230.34 212.70 230.37 212.05 230.41 C 207.68 230.68 203.86 231.16 199.75 232.74 C 198.42 233.17 198.42 233.17 196.32 233.17 C 196.09 231.55 195.86 229.93 195.62 228.26 C 196.31 227.86 197.01 227.45 197.72 227.04 C 198.42 226.52 199.11 225.99 199.82 225.46 C 199.82 224.53 199.82 223.61 199.82 222.66 C 195.20 224.74 190.57 226.82 185.80 228.97 C 185.80 228.27 185.80 227.58 185.80 226.86 C 186.99 225.99 186.99 225.99 188.61 225.07 C 192.06 222.91 194.19 220.29 196.58 217.03 C 196.96 216.57 197.34 216.11 197.72 215.64 C 198.18 215.64 198.65 215.64 199.12 215.64 C 199.59 214.49 200.05 213.33 200.53 212.14 C 200.99 212.14 201.45 212.14 201.93 212.14 C 202.01 211.58 202.01 211.58 202.10 211.00 C 203.02 208.09 204.22 205.83 206.92 204.26 C 210.58 202.60 213.83 201.63 217.84 201.45 C 224.27 200.81 228.95 196.74 233.98 192.98 C 236.32 191.27 237.05 190.98 239.79 191.80 Z" fill="#26374F"/><path d="M 201.23 169.37 C 202.15 169.37 203.08 169.37 204.03 169.37 C 204.28 169.92 204.54 170.47 204.80 171.04 C 208.22 178.17 211.30 183.03 218.76 186.20 C 222.97 187.59 226.97 187.74 231.38 187.60 C 231.38 189.70 231.38 189.70 230.58 190.70 C 218.20 201.42 197.28 203.33 181.59 203.02 C 179.44 196.64 179.44 196.64 178.79 193.91 C 179.86 193.36 179.86 193.36 180.94 192.81 C 181.89 192.31 182.84 191.82 183.78 191.32 C 184.25 191.08 184.72 190.84 185.20 190.60 C 191.90 187.09 196.50 182.26 199.17 175.05 C 199.53 173.83 199.87 172.62 200.17 171.40 C 200.53 170.07 200.53 170.07 201.23 169.37 Z" fill="#00D66B"/><path d="M 149.34 193.91 C 149.17 194.45 149.17 194.45 149.01 195.02 C 147.67 201.26 148.22 206.70 151.45 212.14 C 151.45 213.06 151.45 213.99 151.45 214.94 C 149.07 215.63 146.68 216.32 144.30 217.00 C 143.63 217.20 142.95 217.39 142.26 217.59 C 141.61 217.78 140.96 217.96 140.28 218.16 C 139.39 218.42 139.39 218.42 138.47 218.69 C 132.25 220.34 125.75 220.87 119.89 217.75 C 116.98 215.20 115.79 212.66 115.47 208.81 C 115.56 203.88 118.58 200.37 121.98 197.07 C 124.32 195.32 126.90 194.58 129.71 193.91 C 129.29 196.26 128.41 197.68 126.90 199.52 C 127.29 199.38 127.68 199.24 128.08 199.09 C 129.88 198.44 131.68 197.79 133.48 197.15 C 134.09 196.93 134.70 196.71 135.33 196.47 C 146.52 192.50 146.52 192.50 149.34 193.91 Z" fill="#26374F"/><path d="M 171.65 192.24 C 173.99 194.79 175.83 197.45 176.10 200.98 C 175.76 205.26 173.85 208.12 170.64 210.96 C 167.35 213.29 164.51 213.16 160.56 212.84 C 156.86 211.58 155.09 209.61 152.85 206.53 C 151.78 203.33 151.47 200.43 152.78 197.30 C 154.94 193.60 157.41 191.32 161.48 189.79 C 165.16 189.62 168.46 190.40 171.65 192.24 Z" fill="#00D66B"/><path d="M 240.27 144.61 C 244.85 149.19 246.25 154.43 246.32 160.73 C 246.34 161.28 246.36 161.83 246.38 162.39 C 246.45 168.44 243.86 172.82 239.82 177.20 C 235.74 180.85 230.57 182.98 225.06 182.69 C 219.41 181.91 215.40 179.31 211.74 174.97 C 207.70 168.99 207.35 162.64 208.55 155.64 C 210.01 150.38 213.47 145.83 217.97 142.77 C 226.04 138.26 232.84 139.94 240.27 144.61 Z M 214.55 150.43 C 211.63 154.97 210.45 160.26 211.35 165.59 C 212.77 170.91 214.90 174.79 219.63 177.74 C 223.87 179.87 227.68 179.81 232.17 178.44 C 236.39 176.63 239.35 173.37 241.50 169.37 C 243.48 164.32 243.53 158.39 241.95 153.23 C 240.08 149.19 237.80 145.91 233.49 144.31 C 225.81 142.19 219.72 144.53 214.55 150.43 Z" fill="#081724"/><path d="M 161.26 217.05 C 163.62 216.99 165.97 216.87 168.32 216.73 C 170.38 217.05 170.38 217.05 171.71 218.62 C 173.05 221.98 172.49 225.00 171.22 228.33 C 170.55 229.67 170.55 229.67 168.97 231.77 C 166.40 232.60 164.52 232.42 161.92 231.81 C 154.97 230.44 148.51 230.96 141.63 232.47 C 142.38 227.72 144.25 223.61 147.24 219.85 C 151.89 217.10 155.97 216.01 161.26 217.05 Z" fill="#26374F"/><path d="M 258.02 184.09 C 261.41 185.76 263.27 187.77 265.03 191.10 C 265.94 194.17 265.90 196.09 264.60 198.95 C 262.98 201.83 260.99 203.65 258.02 205.13 C 254.85 205.42 251.96 205.52 248.99 204.29 C 246.55 202.21 244.29 199.90 243.76 196.64 C 243.53 192.94 243.82 190.82 246.28 187.95 C 249.79 184.29 253.04 183.40 258.02 184.09 Z" fill="#00D66B"/><path d="M 209.25 183.78 C 210.78 186.18 211.31 188.31 211.04 191.10 C 209.79 194.84 207.56 196.96 204.16 198.86 C 200.67 200.40 198.57 200.63 194.91 199.52 C 192.81 198.07 192.81 198.07 191.41 196.01 C 190.88 193.05 190.81 191.50 192.24 188.87 C 194.52 185.66 196.74 183.67 200.40 182.17 C 203.61 181.79 206.49 182.02 209.25 183.78 Z" fill="#081724"/><path d="M 141.82 176.11 C 143.73 176.38 143.73 176.38 145.10 177.94 C 145.66 178.97 145.66 178.97 146.23 180.02 C 148.15 183.37 148.15 183.37 150.70 186.24 C 151.41 186.91 151.41 186.91 152.14 187.60 C 152.14 188.06 152.14 188.52 152.14 189.00 C 150.28 189.45 148.41 189.91 146.53 190.36 C 146.02 190.48 145.50 190.62 144.96 190.74 C 143.39 191.12 141.81 191.47 140.22 191.80 C 139.71 191.92 139.20 192.03 138.67 192.15 C 137.19 192.43 137.19 192.43 134.61 192.50 C 133.04 191.32 133.04 191.32 131.90 189.61 C 131.52 189.06 131.12 188.51 130.72 187.95 C 128.84 184.71 128.05 182.25 128.30 178.48 C 129.69 177.11 132.16 177.27 134.05 177.04 C 134.51 176.97 134.97 176.91 135.45 176.84 C 137.57 176.57 139.69 176.36 141.82 176.11 Z" fill="#00D66B"/><path d="M 179.27 86.72 C 181.36 88.41 182.51 89.82 183.70 92.24 C 184.02 95.43 183.39 97.35 181.42 99.87 C 178.62 102.03 176.72 102.94 173.18 102.67 C 170.44 102.24 168.85 101.23 166.87 99.26 C 165.66 96.83 165.92 94.19 166.17 91.54 C 167.14 89.05 167.97 88.23 170.20 86.76 C 173.48 85.56 176.02 85.36 179.27 86.72 Z" fill="#075BD8"/><path d="M 140.93 163.06 C 142.15 164.28 141.89 165.99 142.02 167.66 C 142.11 168.72 142.11 168.72 142.20 169.81 C 142.25 170.36 142.29 170.90 142.33 171.47 C 139.09 172.68 135.94 173.27 132.51 173.66 C 132.03 173.72 131.55 173.78 131.06 173.85 C 128.26 174.18 125.52 174.44 122.70 174.28 C 121.38 173.18 121.38 173.18 120.59 171.47 C 120.32 168.39 120.26 167.06 122.00 164.46 C 123.59 164.02 123.59 164.02 125.57 163.77 C 126.27 163.68 126.98 163.59 127.72 163.49 C 128.83 163.37 128.83 163.37 129.98 163.23 C 130.71 163.13 131.45 163.04 132.21 162.94 C 138.37 162.18 138.37 162.18 140.93 163.06 Z" fill="#075BD8"/><path d="M 187.20 160.25 C 189.24 161.81 189.90 162.72 190.71 165.16 C 191.09 169.17 190.39 171.12 187.91 174.28 C 187.20 174.98 187.20 174.98 184.53 175.19 C 182.49 175.15 181.69 175.03 179.88 173.97 C 178.29 171.34 177.95 168.91 178.09 165.86 C 179.85 161.02 182.09 159.71 187.20 160.25 Z" fill="#081724"/><path d="M 236.35 154.36 C 237.69 154.65 237.69 154.65 239.40 155.65 C 240.99 158.28 241.32 160.70 241.19 163.76 C 240.33 166.36 239.52 167.59 237.47 169.37 C 235.58 170.07 235.58 170.07 233.39 169.67 C 231.21 168.58 230.51 167.93 229.27 165.86 C 228.69 162.34 228.80 159.15 230.32 155.91 C 232.45 154.37 233.77 154.16 236.35 154.36 Z" fill="#081724"/><path d="M 193.51 206.53 C 193.98 207.69 194.44 208.84 194.92 210.03 C 193.53 210.73 193.53 210.73 192.11 211.44 C 192.36 211.94 192.60 212.45 192.86 212.97 C 193.62 215.26 193.56 216.16 192.81 218.45 C 191.36 220.02 191.36 220.02 189.62 221.47 C 189.03 221.96 188.45 222.45 187.86 222.96 C 187.19 223.50 187.19 223.50 186.50 224.06 C 185.07 222.87 184.43 222.04 183.79 220.26 C 183.67 217.92 184.32 217.17 185.76 215.33 C 187.69 212.68 188.15 211.25 187.91 207.93 C 190.17 206.42 190.91 206.39 193.51 206.53 Z M 194.92 211.44 C 196.40 211.70 196.40 211.70 197.72 212.14 C 196.80 213.06 195.87 213.99 194.92 214.94 C 194.45 214.25 193.99 213.55 193.51 212.84 C 193.98 212.38 194.44 211.91 194.92 211.44 Z" fill="#24B5ED"/><path d="M 205.43 185.49 C 205.87 186.76 205.87 186.76 206.14 188.30 C 205.44 189.34 205.44 189.34 204.73 190.40 C 205.43 190.86 206.12 191.33 206.84 191.80 C 205.85 194.18 204.90 195.46 202.63 196.71 C 199.96 197.43 197.85 197.76 195.27 196.67 C 194.22 195.31 194.22 195.31 193.82 193.34 C 194.42 189.95 196.29 187.94 199.04 185.93 C 201.18 185.30 203.21 185.41 205.43 185.49 Z" fill="#F32643"/><path d="M 175.99 212.14 C 177.25 212.49 177.25 212.49 178.79 213.54 C 180.26 216.39 181.10 219.49 181.59 222.66 C 178.88 222.66 177.03 221.66 174.58 220.55 C 174.41 219.55 174.25 218.54 174.10 217.53 C 174.01 216.97 173.92 216.41 173.83 215.83 C 173.88 214.24 173.88 214.24 174.92 212.99 C 175.27 212.71 175.62 212.43 175.99 212.14 Z" fill="#26374F"/><path d="M 193.51 206.53 C 193.98 207.69 194.44 208.84 194.92 210.03 C 193.53 210.73 193.53 210.73 192.11 211.44 C 192.11 211.90 192.11 212.36 192.11 212.84 C 190.96 212.61 189.80 212.38 188.61 212.14 C 188.37 210.75 188.14 209.36 187.91 207.93 C 190.17 206.42 190.91 206.39 193.51 206.53 Z M 194.92 211.44 C 196.40 211.70 196.40 211.70 197.72 212.14 C 196.80 213.06 195.87 213.99 194.92 214.94 C 194.45 214.25 193.99 213.55 193.51 212.84 C 193.98 212.38 194.44 211.91 194.92 211.44 Z" fill="#24B5ED"/><path d="M 177.39 223.36 C 179.47 224.74 181.55 226.13 183.70 227.56 C 183.00 228.97 183.00 228.97 181.07 229.80 C 178.76 230.37 177.54 230.33 175.28 229.67 C 175.81 224.93 175.81 224.93 177.39 223.36 Z" fill="#26374F"/><path d="M 201.93 211.44 C 203.86 211.61 203.86 211.61 205.43 212.14 C 205.96 213.36 205.96 213.36 206.14 214.94 C 204.95 216.56 204.95 216.56 203.33 217.75 C 201.84 217.75 201.84 217.75 200.53 217.05 C 199.65 215.60 199.65 215.60 199.12 214.24 C 200.31 212.80 200.31 212.80 201.93 211.44 Z" fill="#F4C637"/><path d="M 180.19 207.23 C 182.27 207.23 184.36 207.23 186.50 207.23 C 185.10 210.04 184.06 211.02 181.59 212.84 C 180.50 211.22 180.50 211.22 179.49 209.33 C 179.72 208.64 179.95 207.94 180.19 207.23 Z" fill="#FFFEFA"/><path d="M 174.58 106.96 C 175.76 107.17 176.93 107.40 178.09 107.67 C 178.09 109.29 178.09 110.91 178.09 112.57 C 176.93 112.84 175.76 113.07 174.58 113.28 C 173.88 112.57 173.88 112.57 173.80 110.12 C 173.88 107.67 173.88 107.67 174.58 106.96 Z" fill="#075BD8"/><path d="M 140.93 223.36 C 140.23 224.74 139.54 226.13 138.82 227.56 C 136.61 226.60 136.03 226.17 134.62 224.06 C 137.02 222.92 138.39 222.42 140.93 223.36 Z" fill="#26374F"/><path d="M 185.80 209.33 C 186.26 210.26 186.73 211.18 187.20 212.14 C 186.05 213.53 184.89 214.91 183.70 216.34 C 183.00 216.11 182.31 215.88 181.59 215.64 C 182.06 214.71 182.53 213.77 183.00 212.84 C 183.23 212.33 183.46 211.83 183.70 211.30 C 184.40 210.03 184.40 210.03 185.80 209.33 Z" fill="#FF829C"/><path d="M 179.49 103.46 C 180.54 104.15 180.54 104.15 181.59 104.86 C 181.59 105.56 181.59 106.25 181.59 106.96 C 182.29 106.73 182.98 106.50 183.70 106.26 C 183.70 107.42 183.70 108.58 183.70 109.77 C 182.31 109.77 180.92 109.77 179.49 109.77 C 179.49 107.69 179.49 105.60 179.49 103.46 Z" fill="#26374F"/><path d="M 188.61 210.74 C 190.34 211.09 190.34 211.09 192.11 211.44 C 192.11 211.90 192.11 212.36 192.11 212.84 C 190.96 212.61 189.80 212.38 188.61 212.14 C 188.61 211.67 188.61 211.21 188.61 210.74 Z M 194.92 211.44 C 196.40 211.70 196.40 211.70 197.72 212.14 C 196.80 213.06 195.87 213.99 194.92 214.94 C 194.45 214.25 193.99 213.55 193.51 212.84 C 193.98 212.38 194.44 211.91 194.92 211.44 Z" fill="#26374F"/><path d="M 200.53 205.83 C 200.17 207.35 199.82 208.63 199.12 210.03 C 197.76 209.82 197.76 209.82 196.32 209.33 C 196.09 208.64 195.86 207.94 195.62 207.23 C 198.95 205.83 198.95 205.83 200.53 205.83 Z" fill="#FFFEFA"/><path d="M 195.62 205.83 C 196.77 205.83 197.93 205.83 199.12 205.83 C 198.43 206.30 198.43 206.30 197.72 206.79 C 197.03 207.36 197.03 207.36 196.32 207.93 C 196.32 208.39 196.32 208.86 196.32 209.33 C 195.62 209.10 194.93 208.87 194.22 208.63 C 194.68 207.71 195.14 206.78 195.62 205.83 Z M 197.02 210.03 C 199.12 210.74 199.12 210.74 199.12 210.74 Z" fill="#26374F"/><path d="M 131.11 159.55 C 133.17 159.82 133.17 159.82 135.32 160.25 C 135.55 160.72 135.78 161.18 136.02 161.65 C 136.71 162.12 137.41 162.58 138.12 163.06 C 136.73 163.06 135.35 163.06 133.92 163.06 C 133.92 162.59 133.92 162.13 133.92 161.65 C 133.22 161.65 132.53 161.65 131.81 161.65 C 131.58 160.96 131.35 160.27 131.11 159.55 Z" fill="#26374F"/><path d="M 145.84 153.94 C 146.76 154.40 147.69 154.87 148.64 155.34 C 147.95 156.27 147.25 157.20 146.54 158.15 C 145.84 157.45 145.15 156.76 144.43 156.05 C 144.90 155.35 145.36 154.66 145.84 153.94 Z" fill="#26374F"/><path d="M 235.58 136.41 C 237.07 136.68 237.07 136.68 238.39 137.11 C 238.16 137.81 237.93 138.50 237.69 139.22 C 235.96 138.52 235.96 138.52 234.18 137.82 C 234.64 137.35 235.11 136.89 235.58 136.41 Z M 237.69 139.22 C 239.09 139.92 239.09 139.92 239.09 139.92 Z" fill="#26374F"/><path d="M 188.61 203.72 C 189.30 203.72 189.99 203.72 190.71 203.72 C 191.89 205.13 191.89 205.13 192.81 206.53 C 191.66 206.76 190.50 206.99 189.31 207.23 C 188.84 206.30 188.38 205.38 187.91 204.43 C 188.14 204.19 188.37 203.96 188.61 203.72 Z" fill="#26374F"/><path d="M 245.40 172.87 C 245.86 173.10 246.33 173.34 246.80 173.57 C 246.57 174.50 246.34 175.43 246.10 176.38 C 245.18 176.61 244.25 176.84 243.30 177.08 C 243.99 175.69 244.68 174.30 245.40 172.87 Z" fill="#26374F"/></svg>
