<svg xmlns="http://www.w3.org/2000/svg" viewBox="0 0 400 260" width="400" height="260"><path d="M 185.85 43.48 C 189.67 46.78 192.20 50.28 192.69 55.38 C 192.36 59.52 190.91 62.75 187.87 65.62 C 186.34 66.96 186.34 66.96 186.51 69.29 C 186.54 69.99 186.56 70.69 186.59 71.41 C 187.00 71.34 187.42 71.27 187.84 71.20 C 202.00 68.83 213.77 67.91 226.06 76.57 C 228.13 78.36 229.71 80.30 231.42 82.44 C 231.44 81.66 231.46 80.88 231.48 80.07 C 231.90 68.15 231.90 68.15 236.47 63.36 C 241.48 58.71 245.49 57.79 252.31 57.90 C 257.46 58.45 261.35 60.59 264.86 64.39 C 267.67 68.07 268.50 71.69 268.41 76.28 C 267.90 79.95 266.39 83.48 263.76 86.11 C 263.17 88.17 262.65 90.23 262.15 92.31 C 260.87 97.46 259.30 102.35 257.37 107.28 C 255.45 112.21 254.46 116.68 253.89 121.95 C 253.02 126.80 250.63 131.19 247.56 135.00 C 246.15 136.77 245.23 138.43 244.24 140.45 C 240.36 147.71 235.07 154.62 228.48 159.60 C 229.82 163.09 231.36 166.48 232.89 169.89 C 233.54 169.77 234.20 169.64 234.88 169.52 C 242.15 168.30 248.52 167.97 254.94 172.10 C 258.30 175.74 258.96 178.76 258.91 183.59 C 257.73 193.32 252.06 205.60 244.43 211.66 C 241.72 213.53 239.86 213.57 236.56 213.25 C 233.63 211.97 230.95 210.39 228.46 208.37 C 225.92 206.63 223.37 207.04 220.39 207.37 C 217.64 207.93 214.93 208.56 212.31 209.58 C 211.15 211.90 212.17 214.02 212.82 216.42 C 212.93 216.91 213.05 217.40 213.18 217.91 C 214.03 221.15 215.23 223.26 217.45 225.75 C 218.78 228.39 218.22 231.05 217.45 233.83 C 213.54 240.91 206.09 246.94 198.35 249.27 C 194.08 250.23 190.56 250.22 186.43 248.74 C 182.97 246.26 181.79 242.58 180.85 238.61 C 179.55 233.74 177.68 229.63 175.33 225.20 C 174.05 222.73 172.96 220.24 171.89 217.66 C 170.90 217.78 170.90 217.78 169.90 217.90 C 163.61 218.52 158.19 218.85 152.79 215.21 C 149.31 212.16 147.96 208.59 146.35 204.33 C 145.26 201.83 143.85 200.20 142.02 198.22 C 138.39 194.09 138.43 189.57 138.55 184.28 C 139.12 178.59 141.26 173.69 144.70 169.16 C 143.90 169.05 143.90 169.05 143.08 168.93 C 137.17 167.47 131.92 162.30 128.53 157.40 C 127.90 156.10 127.28 154.80 126.69 153.50 C 125.03 149.89 123.42 149.26 119.71 147.84 C 116.75 144.04 115.81 140.17 116.03 135.35 C 116.99 132.81 117.80 131.37 119.71 129.47 C 119.58 127.65 119.58 127.65 119.11 125.61 C 118.97 124.88 118.82 124.15 118.66 123.39 C 118.53 122.73 118.39 122.07 118.24 121.39 C 116.43 112.88 117.02 103.99 121.77 96.52 C 123.20 94.66 124.70 92.95 126.32 91.25 C 126.87 90.64 126.87 90.64 127.43 90.03 C 138.07 79.61 156.35 76.45 170.42 74.35 C 170.42 72.17 170.42 69.99 170.42 67.74 C 169.89 67.58 169.36 67.44 168.81 67.28 C 165.81 65.81 163.80 63.56 162.47 60.48 C 162.00 55.18 162.15 51.60 165.27 47.16 C 170.98 40.91 178.33 39.37 185.85 43.48 Z" fill="#081724"/><path d="M 239.70 95.41 C 241.18 96.66 242.56 97.96 243.91 99.34 C 244.47 99.90 245.03 100.46 245.61 101.04 C 249.35 107.00 249.76 113.77 249.05 120.65 C 247.28 127.93 243.07 133.53 236.72 137.41 C 232.04 139.93 227.09 140.46 221.86 139.76 C 214.88 137.33 210.32 133.43 207.08 126.82 C 206.43 125.06 206.43 125.06 206.43 122.12 C 204.49 122.36 202.55 122.61 200.55 122.86 C 200.39 123.62 200.23 124.38 200.06 125.17 C 197.95 134.70 194.87 142.04 186.58 147.84 C 178.76 152.11 171.03 153.70 162.20 151.52 C 156.25 149.45 151.48 145.20 148.32 139.80 C 145.37 133.32 144.85 125.66 147.32 118.91 C 151.05 111.07 157.36 104.82 165.51 101.59 C 173.50 99.29 180.87 99.32 188.37 103.20 C 192.93 106.01 196.62 109.60 198.34 114.77 C 200.04 114.53 201.74 114.29 203.49 114.04 C 203.80 112.87 203.80 112.87 204.11 111.67 C 206.62 102.64 209.60 97.68 217.87 92.82 C 225.07 89.47 233.41 90.83 239.70 95.41 Z" fill="#075BD8"/><path d="M 214.51 157.40 C 215.24 157.40 215.97 157.40 216.72 157.40 C 216.72 157.88 216.72 158.37 216.72 158.87 C 217.23 158.87 217.75 158.87 218.28 158.87 C 222.20 160.23 223.98 163.83 225.76 167.40 C 227.81 172.17 227.81 172.17 227.58 174.40 C 226.77 176.32 225.30 177.24 223.70 178.50 C 222.12 179.86 221.22 181.22 220.39 183.12 C 220.55 184.77 220.55 184.77 221.13 186.06 C 223.58 185.02 224.89 183.81 226.55 181.74 C 230.28 177.37 235.14 173.96 241.02 173.43 C 242.23 173.43 243.44 173.49 244.65 173.57 C 244.65 174.29 244.65 175.02 244.65 175.77 C 243.28 176.79 243.28 176.79 241.48 177.84 C 238.54 179.71 236.81 181.11 235.83 184.59 C 236.43 186.16 236.43 186.16 237.30 187.53 C 237.30 189.04 237.30 189.04 236.56 190.47 C 235.85 190.79 235.14 191.11 234.40 191.43 C 231.93 192.49 231.93 192.49 231.14 195.16 C 230.76 197.36 230.55 199.27 230.68 201.49 C 228.18 202.33 227.34 202.02 224.80 201.49 C 219.42 200.83 214.99 203.11 210.11 205.17 C 209.23 205.54 209.23 205.54 208.35 205.90 C 207.21 206.38 206.09 206.87 204.96 207.37 C 205.05 207.82 205.14 208.26 205.23 208.73 C 205.49 210.01 205.75 211.31 206.00 212.60 C 206.28 214.01 206.58 215.41 206.88 216.83 C 207.02 217.48 207.16 218.13 207.31 218.81 C 207.44 219.42 207.57 220.03 207.70 220.65 C 207.77 221.12 207.83 221.59 207.90 222.07 C 206.34 223.63 203.23 223.45 201.11 223.76 C 198.93 224.31 197.88 225.12 196.14 226.48 C 194.70 226.92 194.70 226.92 193.25 227.17 C 190.40 227.78 188.84 229.03 186.59 230.89 C 184.38 230.16 184.38 230.16 183.52 228.69 C 183.11 227.75 183.11 227.75 182.69 226.78 C 182.40 226.10 182.10 225.42 181.80 224.71 C 181.50 223.99 181.20 223.27 180.89 222.53 C 180.42 221.46 180.42 221.46 179.94 220.37 C 177.67 215.01 177.67 215.01 178.50 212.52 C 181.77 212.15 181.77 212.15 185.12 211.78 C 183.99 208.76 183.99 208.76 181.72 207.93 C 181.14 207.74 180.57 207.56 179.97 207.37 C 180.14 206.45 180.30 205.52 180.48 204.57 C 181.03 199.47 179.97 194.17 176.71 190.10 C 174.98 188.29 174.98 188.29 173.27 187.25 C 171.12 185.39 170.40 182.89 169.68 180.18 C 169.68 179.45 169.68 178.73 169.68 177.98 C 168.17 178.34 168.17 178.34 166.74 179.45 C 166.14 182.06 166.14 182.06 166.01 184.59 C 165.37 184.77 164.73 184.94 164.08 185.13 C 155.93 187.33 155.93 187.33 150.30 193.23 C 149.91 194.01 149.51 194.81 149.11 195.61 C 146.90 194.88 146.90 194.88 145.66 192.68 C 143.57 187.21 144.67 182.47 146.49 177.07 C 148.19 174.04 149.74 171.70 152.78 169.89 C 156.38 169.19 159.87 169.27 163.53 169.39 C 164.49 169.39 165.45 169.39 166.44 169.39 C 174.12 169.50 174.12 169.50 177.77 172.83 C 178.25 173.07 178.74 173.32 179.24 173.57 C 178.75 172.11 178.27 170.66 177.77 169.16 C 179.04 168.91 180.31 168.66 181.58 168.42 C 182.29 168.28 182.99 168.15 183.73 168.01 C 185.70 167.71 187.54 167.63 189.53 167.69 C 189.28 169.14 189.04 170.60 188.79 172.10 C 190.44 171.45 190.44 171.45 191.22 169.57 C 192.69 167.35 193.56 166.78 196.14 166.22 C 197.84 166.86 197.84 166.86 199.08 167.69 C 198.94 168.75 198.94 168.75 198.80 169.85 C 198.77 172.58 199.70 173.90 201.33 176.05 C 203.06 178.45 203.82 179.87 203.54 182.84 C 202.95 185.84 201.89 188.47 200.55 191.21 C 197.38 191.21 195.97 189.85 193.65 187.78 C 191.72 184.98 192.27 182.52 192.76 179.28 C 193.12 177.61 193.50 175.96 193.94 174.30 C 193.45 174.30 192.97 174.30 192.47 174.30 C 191.98 177.21 191.50 180.12 191.00 183.12 C 187.43 181.34 187.43 181.34 185.85 179.45 C 185.85 178.96 185.85 178.48 185.85 177.98 C 185.41 177.90 184.97 177.82 184.52 177.75 C 182.69 177.18 182.01 176.40 180.71 175.04 C 180.22 175.04 179.74 175.04 179.24 175.04 C 182.13 179.01 185.07 182.39 188.84 185.54 C 191.03 187.48 192.82 189.68 194.67 191.94 C 193.94 191.94 193.22 191.94 192.47 191.94 C 192.47 192.43 192.47 192.91 192.47 193.41 C 194.89 194.14 197.32 194.87 199.82 195.61 C 199.44 198.84 198.99 201.19 196.88 203.70 C 195.18 204.50 193.49 205.17 191.70 205.76 C 190.06 206.54 190.06 206.54 189.70 208.56 C 189.64 209.15 189.59 209.72 189.53 210.31 C 195.55 209.15 195.55 209.15 200.54 205.87 C 201.65 204.11 201.65 204.11 202.76 201.49 C 204.94 201.98 207.12 202.46 209.37 202.96 C 209.61 201.99 209.86 201.02 210.11 200.02 C 209.59 199.95 209.08 199.87 208.55 199.80 C 206.14 199.22 204.19 198.25 202.02 197.08 C 202.47 194.15 204.01 192.13 205.70 189.74 C 205.21 189.49 204.73 189.25 204.23 189.00 C 204.53 187.72 204.53 187.72 204.84 186.42 C 205.12 185.29 205.38 184.16 205.65 183.03 C 205.78 182.47 205.92 181.91 206.06 181.34 C 206.78 178.27 207.43 175.22 207.90 172.10 C 207.42 172.34 206.93 172.58 206.43 172.83 C 205.89 174.53 205.40 176.25 204.96 177.98 C 204.48 177.98 203.99 177.98 203.49 177.98 C 201.40 175.28 200.55 174.10 200.55 170.63 C 202.01 170.99 202.01 170.99 203.49 171.36 C 202.89 170.66 202.28 169.97 201.65 169.25 C 199.82 167.14 199.82 167.14 199.82 165.48 C 202.62 164.44 204.89 163.84 207.90 164.01 C 207.90 166.20 207.90 168.38 207.90 170.63 C 208.63 170.26 208.63 170.26 209.37 169.89 C 209.97 168.04 210.41 166.17 210.85 164.27 C 211.58 162.54 211.58 162.54 213.12 161.57 C 213.58 161.41 214.04 161.24 214.51 161.07 C 214.31 160.37 214.31 160.37 214.10 159.65 C 213.94 158.90 213.94 158.90 213.78 158.13 C 214.02 157.89 214.27 157.65 214.51 157.40 Z M 207.17 186.80 C 207.90 188.27 207.90 188.27 207.90 188.27 Z" fill="#26374F"/><path d="M 220.55 79.89 C 222.75 81.69 224.76 83.69 226.27 86.11 C 226.27 86.84 226.27 87.56 226.27 88.31 C 225.83 88.38 225.38 88.44 224.93 88.50 C 217.81 89.70 212.08 92.05 207.51 97.79 C 204.42 102.22 202.95 106.54 202.02 111.83 C 201.29 111.83 200.56 111.83 199.81 111.83 C 198.84 110.54 198.84 110.54 197.84 108.80 C 194.29 103.21 189.16 99.77 182.72 98.20 C 173.45 96.68 164.91 97.98 157.00 103.15 C 150.75 107.86 146.52 113.33 143.90 120.67 C 141.92 123.75 139.73 124.29 136.34 125.34 C 135.78 125.53 135.23 125.71 134.65 125.91 C 131.81 126.85 129.36 127.52 126.32 127.27 C 123.76 119.06 121.73 110.35 125.56 102.24 C 131.55 91.83 141.84 87.25 152.95 84.09 C 205.83 69.87 205.83 69.87 220.55 79.89 Z" fill="#00D66B"/><path d="M 202.76 126.53 C 203.24 126.53 203.73 126.53 204.23 126.53 C 204.42 126.94 204.60 127.35 204.80 127.77 C 207.85 133.86 212.02 138.22 218.37 140.86 C 222.93 142.34 227.41 142.24 232.15 141.96 C 232.40 142.45 232.64 142.93 232.89 143.43 C 220.97 158.54 199.57 161.81 181.44 164.01 C 180.83 164.09 180.20 164.17 179.57 164.24 C 149.36 167.80 149.36 167.80 138.82 160.19 C 134.83 156.62 132.57 152.30 131.47 147.11 C 133.76 145.20 135.95 144.21 138.77 143.25 C 139.52 142.99 140.27 142.73 141.04 142.46 C 143.40 141.93 144.64 141.85 146.90 142.70 C 148.29 144.09 148.29 144.09 149.61 145.82 C 153.96 150.99 160.31 154.04 167.05 154.71 C 178.25 154.83 186.36 152.06 194.58 144.35 C 198.75 139.87 200.63 134.48 201.73 128.55 C 202.02 127.27 202.02 127.27 202.76 126.53 Z" fill="#00D66B"/><path d="M 186.14 109.49 C 189.91 112.28 192.55 115.43 193.94 119.92 C 194.82 126.49 193.70 131.60 189.84 136.96 C 186.07 141.57 182.05 143.99 176.30 145.64 C 170.51 146.22 164.87 146.44 160.13 142.70 C 155.83 138.81 153.51 134.26 153.20 128.46 C 153.44 122.47 156.08 117.44 160.13 113.12 C 166.96 107.12 178.01 104.51 186.14 109.49 Z" fill="#FFFEFA"/><path d="M 233.81 99.02 C 238.03 101.43 240.99 105.00 242.44 109.63 C 243.02 115.61 243.30 121.56 239.50 126.53 C 235.71 130.93 231.87 133.54 226.13 134.11 C 221.40 133.72 217.52 132.10 214.24 128.60 C 211.02 124.41 209.64 119.54 209.85 114.28 C 210.62 109.14 212.65 104.84 216.72 101.55 C 222.00 97.75 227.62 96.23 233.81 99.02 Z" fill="#FFFEFA"/><path d="M 188.06 106.69 C 192.86 109.98 195.86 113.78 197.32 119.45 C 198.54 127.65 196.13 134.05 191.55 140.68 C 185.79 146.43 179.25 149.24 171.11 149.64 C 165.34 149.43 159.07 146.84 154.99 142.70 C 150.63 136.29 150.02 130.46 150.58 122.86 C 152.16 116.24 155.52 112.08 161.09 108.39 C 169.74 103.19 178.82 101.34 188.06 106.69 Z M 159.22 113.99 C 155.42 118.45 153.21 123.97 153.32 129.81 C 153.93 135.59 156.37 139.51 160.79 143.16 C 165.65 146.34 170.66 146.12 176.30 145.64 C 182.71 144.18 187.31 140.42 191.28 135.31 C 194.06 130.27 194.61 125.61 193.94 119.92 C 192.42 114.66 189.81 111.73 185.18 108.94 C 176.50 104.53 165.98 107.66 159.22 113.99 Z" fill="#081724"/><path d="M 168.95 189.74 C 172.19 191.18 174.19 193.11 175.84 196.31 C 177.06 200.30 176.12 204.07 174.28 207.70 C 171.12 211.30 168.19 212.28 163.49 212.61 C 160.37 212.46 158.11 211.59 155.72 209.58 C 153.35 206.54 152.24 203.16 152.45 199.30 C 153.25 195.71 155.21 192.86 158.15 190.69 C 161.64 189.01 165.16 189.29 168.95 189.74 Z" fill="#00D66B"/><path d="M 255.96 64.70 C 258.61 66.20 259.97 67.56 261.64 70.13 C 262.57 74.09 262.13 77.34 260.00 80.84 C 257.87 83.55 255.88 85.16 252.46 85.60 C 247.27 85.62 244.28 84.88 240.37 81.24 C 238.26 78.47 237.72 75.59 238.04 72.15 C 239.14 68.96 240.98 66.50 243.92 64.80 C 247.80 63.50 252.07 63.29 255.96 64.70 Z" fill="#00D66B"/><path d="M 236.79 96.86 C 242.33 101.75 246.27 106.79 246.90 114.38 C 246.74 120.64 244.82 126.34 240.39 130.80 C 235.37 135.47 230.96 137.29 224.06 137.07 C 218.04 136.39 214.37 133.63 210.59 128.98 C 206.27 122.91 206.27 115.82 207.46 108.58 C 209.09 103.30 213.46 98.59 218.28 96.04 C 224.24 93.27 231.00 94.02 236.79 96.86 Z M 213.78 104.49 C 210.28 109.74 209.22 114.69 210.45 120.90 C 211.81 125.62 214.05 129.30 218.29 131.91 C 222.84 134.13 226.66 134.60 231.51 132.96 C 236.56 130.85 239.18 127.59 241.71 122.86 C 243.31 118.04 243.43 110.97 241.29 106.27 C 239.16 102.80 236.13 100.39 232.66 98.33 C 225.00 96.55 218.85 98.42 213.78 104.49 Z" fill="#081724"/><path d="M 212.26 140.08 C 214.10 142.37 214.54 143.93 214.71 146.83 C 214.29 150.58 212.01 153.17 209.55 155.88 C 206.86 157.15 204.26 157.58 201.28 157.40 C 198.81 156.50 196.62 155.43 195.40 152.99 C 195.11 149.13 195.49 146.69 197.61 143.43 C 201.76 139.23 206.75 137.38 212.26 140.08 Z" fill="#081724"/><path d="M 181.44 47.89 C 183.47 49.23 184.76 50.13 185.85 52.30 C 186.36 55.19 186.57 57.80 184.93 60.34 C 182.61 62.58 180.61 63.61 177.36 63.78 C 174.16 63.57 172.14 62.47 169.68 60.39 C 168.49 57.99 168.45 55.62 168.95 53.04 C 172.06 47.88 175.50 46.36 181.44 47.89 Z" fill="#075BD8"/><path d="M 141.76 128.74 C 142.22 130.57 142.22 130.57 142.58 132.82 C 142.70 133.56 142.83 134.31 142.95 135.08 C 143.04 135.65 143.14 136.22 143.23 136.82 C 140.18 138.80 137.05 140.13 133.67 141.41 C 133.16 141.62 132.64 141.83 132.11 142.04 C 129.20 143.16 127.11 143.82 124.12 142.70 C 122.80 141.00 122.64 139.69 122.32 137.56 C 122.65 135.35 122.65 135.35 124.06 133.90 C 127.04 131.94 130.05 131.00 133.44 129.98 C 134.08 129.77 134.72 129.57 135.37 129.36 C 140.09 127.91 140.09 127.91 141.76 128.74 Z" fill="#075BD8"/><path d="M 237.30 108.16 C 239.69 110.55 240.90 112.36 241.16 115.73 C 240.97 118.59 240.49 119.88 238.77 122.12 C 236.50 123.26 234.66 123.07 232.15 122.86 C 230.01 121.22 229.33 120.27 228.48 117.71 C 227.98 112.56 227.98 112.56 229.99 109.63 C 232.71 107.78 234.08 107.57 237.30 108.16 Z" fill="#081724"/><path d="M 189.53 119.18 C 191.69 121.37 192.06 123.08 192.10 126.12 C 192.01 129.06 191.85 130.03 190.17 132.55 C 187.68 134.12 186.54 134.43 183.65 133.88 C 181.56 132.18 180.13 130.74 179.80 128.01 C 179.70 124.95 179.69 123.31 181.35 120.65 C 184.15 118.01 185.82 118.34 189.53 119.18 Z" fill="#081724"/><path d="M 200.55 175.04 C 202.27 176.95 203.42 178.40 203.59 181.03 C 203.27 184.77 202.20 187.85 200.55 191.21 C 197.38 191.21 195.97 189.85 193.66 187.78 C 191.72 184.98 192.23 182.53 192.69 179.28 C 193.16 177.40 193.66 175.94 194.67 174.30 C 197.06 173.18 198.45 173.52 200.55 175.04 Z" fill="#24B5ED"/><path d="M 236.56 86.11 C 238.77 86.57 239.97 87.12 241.99 88.31 C 246.24 90.55 250.96 90.39 255.67 90.52 C 255.24 95.15 254.17 99.33 252.73 103.75 C 249.88 102.80 249.67 101.78 248.23 99.20 C 245.32 94.44 241.86 91.55 236.56 89.78 C 236.56 88.57 236.56 87.36 236.56 86.11 Z" fill="#26374F"/><path d="M 209.37 141.96 C 209.37 143.93 209.37 145.88 209.37 147.84 C 209.59 148.83 209.83 149.81 210.11 150.78 C 206.36 154.36 206.36 154.36 203.40 154.83 C 200.98 154.41 199.93 154.14 198.35 152.25 C 197.93 149.77 197.93 149.77 198.35 147.11 C 201.71 143.02 204.11 141.77 209.37 141.96 Z" fill="#F32643"/><path d="M 189.53 167.69 C 189.28 171.69 186.81 174.26 184.38 177.24 C 183.54 176.59 182.72 175.93 181.90 175.26 C 181.44 174.90 180.98 174.53 180.51 174.15 C 179.02 172.60 178.45 171.17 177.77 169.16 C 179.04 168.91 180.31 168.66 181.58 168.42 C 182.29 168.28 182.99 168.15 183.73 168.01 C 185.70 167.71 187.54 167.63 189.53 167.69 Z" fill="#FFFEFA"/><path d="M 215.98 172.10 C 217.56 174.46 217.87 175.23 217.45 177.98 C 216.21 179.40 216.21 179.40 214.51 180.18 C 212.54 179.86 212.54 179.86 210.84 178.71 C 210.11 176.55 210.11 176.55 210.11 174.30 C 211.58 171.85 213.26 171.68 215.98 172.10 Z" fill="#F4C637"/><path d="M 197.06 166.81 C 197.73 167.10 198.39 167.39 199.08 167.69 C 199.18 169.43 199.18 169.43 199.08 171.36 C 197.61 172.83 197.61 172.83 195.04 173.02 C 192.47 172.83 192.47 172.83 191.00 171.36 C 191.13 169.36 191.63 168.54 192.97 167.04 C 194.67 166.22 194.67 166.22 197.06 166.81 Z" fill="#075BD8"/><path d="M 188.79 172.83 C 190.22 173.06 190.22 173.06 191.73 173.57 C 192.56 176.05 192.33 177.07 191.78 179.59 C 191.64 180.25 191.49 180.91 191.34 181.59 C 191.23 182.10 191.11 182.60 191.00 183.12 C 188.90 182.12 187.43 181.17 185.85 179.45 C 186.73 177.18 187.68 174.99 188.79 172.83 Z" fill="#FFFEFA"/><path d="M 207.90 164.01 C 207.42 166.44 206.93 168.86 206.43 171.36 C 204.23 171.36 204.23 171.36 203.04 170.45 C 202.66 170.05 202.28 169.66 201.88 169.25 C 201.49 168.86 201.10 168.47 200.71 168.06 C 199.82 166.95 199.82 166.95 199.82 165.48 C 202.80 164.37 204.63 164.01 207.90 164.01 Z" fill="#FFFEFA"/><path d="M 190.26 171.36 C 190.99 171.60 191.72 171.85 192.47 172.10 C 193.49 172.15 194.52 172.16 195.55 172.14 C 196.47 172.13 197.39 172.11 198.35 172.10 C 198.59 172.58 198.83 173.07 199.08 173.57 C 195.05 174.39 192.59 174.15 188.79 172.83 C 189.28 172.35 189.76 171.86 190.26 171.36 Z M 187.32 172.10 C 187.81 172.34 188.29 172.58 188.79 172.83 C 187.41 176.32 187.41 176.32 186.59 177.98 C 185.62 177.73 184.65 177.49 183.65 177.24 C 184.12 176.67 184.59 176.09 185.07 175.49 C 186.57 173.71 186.57 173.71 187.32 172.10 Z M 179.24 173.57 C 180.71 174.30 180.71 174.30 180.71 174.30 Z" fill="#26374F"/><path d="M 191.73 173.57 C 192.70 173.81 193.67 174.05 194.67 174.30 C 194.19 177.21 193.70 180.12 193.20 183.12 C 191.99 183.36 190.78 183.61 189.53 183.86 C 190.01 183.61 190.50 183.37 191.00 183.12 C 191.34 180.88 191.34 180.88 191.45 178.30 C 191.51 177.42 191.56 176.54 191.62 175.63 C 191.66 174.95 191.70 174.27 191.73 173.57 Z" fill="#081724"/><path d="M 177.03 68.47 C 178.55 68.79 178.55 68.79 179.97 69.21 C 180.22 70.42 180.46 71.63 180.71 72.88 C 179.49 73.16 178.27 73.40 177.03 73.62 C 176.30 72.88 176.30 72.88 176.21 71.04 C 176.30 69.21 176.30 69.21 177.03 68.47 Z" fill="#075BD8"/><path d="M 214.51 193.41 C 216.07 193.69 216.07 193.69 217.45 194.15 C 217.04 196.25 216.82 196.98 215.25 198.55 C 214.28 198.55 213.31 198.55 212.31 198.55 C 212.86 195.06 212.86 195.06 214.51 193.41 Z" fill="#081724"/><path d="M 200.55 171.36 C 202.26 171.66 203.39 172.03 204.82 173.02 C 205.70 174.30 205.70 174.30 205.47 176.28 C 205.30 176.84 205.13 177.40 204.96 177.98 C 204.48 177.98 203.99 177.98 203.49 177.98 C 200.55 174.09 200.55 174.09 200.55 171.36 Z" fill="#FFFEFA"/><path d="M 197.61 173.57 C 199.08 174.30 199.08 174.30 199.08 174.30 Z M 196.14 174.30 C 197.61 175.04 197.61 175.04 197.61 175.04 Z M 199.82 175.04 C 200.54 176.13 200.54 176.13 201.29 177.24 C 200.80 177.24 200.32 177.24 199.82 177.24 C 199.82 176.51 199.82 175.79 199.82 175.04 Z M 202.02 178.71 C 202.51 178.95 202.99 179.20 203.49 179.45 C 203.25 181.63 203.01 183.81 202.76 186.06 C 202.51 186.06 202.27 186.06 202.02 186.06 C 201.20 181.20 201.20 181.20 202.02 178.71 Z" fill="#075BD8"/><path d="M 190.26 171.36 C 190.99 171.60 191.72 171.85 192.47 172.10 C 193.49 172.15 194.52 172.16 195.55 172.14 C 196.47 172.13 197.39 172.11 198.35 172.10 C 198.59 172.58 198.83 173.07 199.08 173.57 C 195.38 174.31 193.03 174.28 189.53 172.83 C 189.77 172.35 190.01 171.86 190.26 171.36 Z" fill="#26374F"/><path d="M 209.37 142.70 C 209.37 144.90 209.37 144.90 207.90 147.11 C 206.09 146.38 206.09 146.38 204.23 145.64 C 204.23 145.15 204.23 144.67 204.23 144.17 C 204.80 144.20 205.38 144.23 205.98 144.26 C 208.02 144.38 208.02 144.38 209.37 142.70 Z" fill="#8C1831"/></svg>
