<?xml version="1.0" encoding="UTF-8"?>
<svg id="_레이어_1" data-name="레이어 1" xmlns="http://www.w3.org/2000/svg" viewBox="0 0 162.35 63.58">
    <defs>
        <style>
            .cls-1 {
            fill: #38f969;
            }

            .cls-1, .cls-2, .cls-3 {
            stroke-width: 0px;
            }

            .cls-2 {
            fill: #4851f2;
            }

            .cls-3 {
            fill: #fff;
            }
        </style>
    </defs>
    <g>
        <path class="cls-2" d="M91.64,32.44h-9.88c-1.79,0-3.25-1.46-3.25-3.25v-12.12c0-1.79,1.46-3.25,3.25-3.25h9.88c1.79,0,3.25,1.46,3.25,3.25s-1.46,3.25-3.25,3.25h-6.62v5.62h6.62c1.79,0,3.25,1.46,3.25,3.25s-1.46,3.25-3.25,3.25Z"/>
        <path class="cls-2" d="M109.42,32.44h-9.88c-1.79,0-3.25-1.46-3.25-3.25v-12.12c0-1.79,1.46-3.25,3.25-3.25h9.88c1.79,0,3.25,1.46,3.25,3.25s-1.46,3.25-3.25,3.25h-6.62v5.62h6.62c1.79,0,3.25,1.46,3.25,3.25s-1.46,3.25-3.25,3.25Z"/>
    </g>
    <path class="cls-2" d="M112.44,38.51h-12.98v-1.55c0-1.79-1.46-3.25-3.25-3.25s-3.25,1.46-3.25,3.25v1.55h-14.2c-1.79,0-3.25,1.46-3.25,3.25s1.46,3.25,3.25,3.25h33.68c1.79,0,3.25-1.46,3.25-3.25s-1.46-3.25-3.25-3.25Z"/>
    <path class="cls-2" d="M103.05,62.85c-1.79,0-3.25-1.46-3.25-3.25v-5.09h-11.66c-1.79,0-3.25-1.46-3.25-3.25s1.46-3.25,3.25-3.25h14.91c1.79,0,3.25,1.46,3.25,3.25v8.34c0,1.79-1.46,3.25-3.25,3.25Z"/>
    <path class="cls-2" d="M122.42,39.02c-.68,0-1.36-.21-1.95-.65-1.44-1.08-1.73-3.12-.65-4.55l8.5-11.32c.61-.82,1.58-1.3,2.6-1.3s1.99.48,2.6,1.3l8.48,11.29c1.08,1.44.79,3.47-.65,4.55-1.44,1.08-3.47.79-4.55-.65l-5.88-7.83-5.9,7.86c-.64.85-1.61,1.3-2.6,1.3Z"/>
    <path class="cls-2" d="M158.47,20.24c-1.79,0-3.25,1.46-3.25,3.25v3.61h-3.47v-3.61c0-1.79-1.46-3.25-3.25-3.25s-3.25,1.46-3.25,3.25v13.25c0,1.79,1.46,3.25,3.25,3.25s3.25-1.46,3.25-3.25v-3.14h3.47v3.14c0,1.79,1.46,3.25,3.25,3.25s3.25-1.46,3.25-3.25v-13.25c0-1.79-1.46-3.25-3.25-3.25Z"/>
    <path class="cls-2" d="M152.47,63.58c-5.45,0-9.89-4.43-9.89-9.89s4.43-9.89,9.89-9.89,9.88,4.43,9.88,9.89-4.43,9.89-9.88,9.89ZM152.47,50.31c-1.87,0-3.39,1.52-3.39,3.39s1.52,3.39,3.39,3.39,3.38-1.52,3.38-3.39-1.52-3.39-3.38-3.39Z"/>
    <g>
        <path class="cls-2" d="M36.24,4.94c0-2.73-2.21-4.94-4.94-4.94s-4.94,2.21-4.94,4.94c0,2.01,1.21,3.74,2.94,4.51v6.84h4v-6.84c1.73-.77,2.94-2.49,2.94-4.51Z"/>
        <rect class="cls-1" x="6.89" y="14.16" width="48.83" height="48.83" rx="9.49" ry="9.49"/>
        <path class="cls-2" d="M47.59,24.13c-7.42,0-13.59,5.42-14.79,12.51h-3.01c-1.2-7.09-7.36-12.51-14.79-12.51-8.28,0-15.01,6.73-15.01,15.01s6.73,15.01,15.01,15.01c7.42,0,13.59-5.42,14.79-12.51h3.01c1.2,7.09,7.36,12.51,14.79,12.51,8.28,0,15.01-6.73,15.01-15.01s-6.73-15.01-15.01-15.01ZM15.01,49.15c-5.52,0-10.01-4.49-10.01-10.01s4.49-10.01,10.01-10.01,10.01,4.49,10.01,10.01-4.49,10.01-10.01,10.01ZM47.59,49.15c-5.52,0-10.01-4.49-10.01-10.01s4.49-10.01,10.01-10.01,10.01,4.49,10.01,10.01-4.49,10.01-10.01,10.01Z"/>
        <path class="cls-3" d="M47.59,29.13c-5.52,0-10.01,4.49-10.01,10.01s4.49,10.01,10.01,10.01,10.01-4.49,10.01-10.01-4.49-10.01-10.01-10.01Z"/>
        <path class="cls-3" d="M15.01,29.13c-5.52,0-10.01,4.49-10.01,10.01s4.49,10.01,10.01,10.01,10.01-4.49,10.01-10.01-4.49-10.01-10.01-10.01Z"/>
    </g>
</svg>