<?xml version="1.0" encoding="UTF-8"?>
<!-- macOS 메뉴바용 템플릿 글리프: 전체 검정 실루엣, 눈은 투명 구멍으로 뚫어 얼굴로 읽히게. -->
<svg xmlns="http://www.w3.org/2000/svg" viewBox="-1 -1 65 65">
    <defs>
        <mask id="eyes" maskUnits="userSpaceOnUse" x="-7.7" y="-7.5" width="78" height="78">
            <rect x="-7.7" y="-7.5" width="78" height="78" fill="#fff"/>
            <circle cx="15.01" cy="39.14" r="10.01" fill="#000"/>
            <circle cx="47.59" cy="39.14" r="10.01" fill="#000"/>
        </mask>
    </defs>
    <g fill="#000" mask="url(#eyes)">
        <!-- 안테나 -->
        <path d="M36.24,4.94c0-2.73-2.21-4.94-4.94-4.94s-4.94,2.21-4.94,4.94c0,2.01,1.21,3.74,2.94,4.51v6.84h4v-6.84c1.73-.77,2.94-2.49,2.94-4.51Z"/>
        <!-- 머리 -->
        <rect x="6.89" y="14.16" width="48.83" height="48.83" rx="9.49" ry="9.49"/>
        <!-- 안경테(머리 밖으로 돌출되는 실루엣 확보) -->
        <path d="M47.59,24.13c-7.42,0-13.59,5.42-14.79,12.51h-3.01c-1.2-7.09-7.36-12.51-14.79-12.51-8.28,0-15.01,6.73-15.01,15.01s6.73,15.01,15.01,15.01c7.42,0,13.59-5.42,14.79-12.51h3.01c1.2,7.09,7.36,12.51,14.79,12.51,8.28,0,15.01-6.73,15.01-15.01s-6.73-15.01-15.01-15.01ZM15.01,49.15c-5.52,0-10.01-4.49-10.01-10.01s4.49-10.01,10.01-10.01,10.01,4.49,10.01,10.01-4.49,10.01-10.01,10.01ZM47.59,49.15c-5.52,0-10.01-4.49-10.01-10.01s4.49-10.01,10.01-10.01,10.01,4.49,10.01,10.01-4.49,10.01-10.01,10.01Z"/>
    </g>
</svg>
